HIERARCHY
ROOT mixamorig:Hips
{
	OFFSET 0.000000 104.274902 0.000000
	CHANNELS 6 Xposition Yposition Zposition Xrotation Yrotation Zrotation
	JOINT mixamorig:Spine
	{
		OFFSET 0.000000 10.181549 0.131524
		CHANNELS 6 Xposition Yposition Zposition Xrotation Yrotation Zrotation
		JOINT mixamorig:Spine1
		{
			OFFSET 0.000000 9.893990 -1.470706
			CHANNELS 3 Xrotation Yrotation Zrotation
			JOINT mixamorig:Spine2
			{
				OFFSET 0.000000 9.220787 -1.370636
				CHANNELS 3 Xrotation Yrotation Zrotation
				JOINT mixamorig:Neck
				{
					OFFSET 0.000000 16.740372 -2.049023
					CHANNELS 6 Xposition Yposition Zposition Xrotation Yrotation Zrotation
					JOINT mixamorig:Head
					{
						OFFSET 0.000000 9.617859 1.684975
						CHANNELS 6 Xposition Yposition Zposition Xrotation Yrotation Zrotation
						JOINT mixamorig:HeadTop_End
						{
							OFFSET 0.000000 22.037369 7.501070
							CHANNELS 6 Xposition Yposition Zposition Xrotation Yrotation Zrotation
							End Site
							{
								OFFSET 0.000000 23.106567 -2.828246
							}
						}
					}
				}
				JOINT mixamorig:RightShoulder
				{
					OFFSET -4.570000 11.014862 -2.160841
					CHANNELS 6 Xposition Yposition Zposition Xrotation Yrotation Zrotation
					JOINT mixamorig:RightArm
					{
						OFFSET -10.592869 -0.524796 -2.232105
						CHANNELS 3 Xrotation Yrotation Zrotation
						JOINT mixamorig:RightForeArm
						{
							OFFSET -27.841499 0.000000 0.000000
							CHANNELS 3 Xrotation Yrotation Zrotation
							JOINT mixamorig:RightHand
							{
								OFFSET -28.328800 0.000000 0.000000
								CHANNELS 3 Xrotation Yrotation Zrotation
								JOINT mixamorig:RightHandThumb1
								{
									OFFSET -2.464798 -1.573990 2.681910
									CHANNELS 6 Xposition Yposition Zposition Xrotation Yrotation Zrotation
									JOINT mixamorig:RightHandThumb2
									{
										OFFSET -3.244789 -1.873367 1.873378
										CHANNELS 3 Xrotation Yrotation Zrotation
										JOINT mixamorig:RightHandThumb3
										{
											OFFSET -2.646255 -1.527817 1.527816
											CHANNELS 3 Xrotation Yrotation Zrotation
											JOINT mixamorig:RightHandThumb4
											{
												OFFSET -1.994583 -1.151581 1.151575
												CHANNELS 3 Xrotation Yrotation Zrotation
												End Site
												{
													OFFSET -1.860176 -1.142715 1.365483
												}
											}
										}
									}
								}
								JOINT mixamorig:RightHandIndex1
								{
									OFFSET -9.108299 -0.517883 2.259803
									CHANNELS 6 Xposition Yposition Zposition Xrotation Yrotation Zrotation
									JOINT mixamorig:RightHandIndex2
									{
										OFFSET -3.700005 0.000000 0.000000
										CHANNELS 3 Xrotation Yrotation Zrotation
										JOINT mixamorig:RightHandIndex3
										{
											OFFSET -2.849998 0.000000 0.000000
											CHANNELS 3 Xrotation Yrotation Zrotation
											JOINT mixamorig:RightHandIndex4
											{
												OFFSET -2.772202 0.000000 0.000000
												CHANNELS 3 Xrotation Yrotation Zrotation
												End Site
												{
													OFFSET -2.772202 0.000000 -0.000484
												}
											}
										}
									}
								}
								JOINT mixamorig:RightHandMiddle1
								{
									OFFSET -9.532501 0.000000 0.000000
									CHANNELS 6 Xposition Yposition Zposition Xrotation Yrotation Zrotation
									JOINT mixamorig:RightHandMiddle2
									{
										OFFSET -3.699997 0.000000 0.000000
										CHANNELS 3 Xrotation Yrotation Zrotation
										JOINT mixamorig:RightHandMiddle3
										{
											OFFSET -2.950005 0.000000 0.000000
											CHANNELS 3 Xrotation Yrotation Zrotation
											JOINT mixamorig:RightHandMiddle4
											{
												OFFSET -2.946602 0.000000 0.000000
												CHANNELS 3 Xrotation Yrotation Zrotation
												End Site
												{
													OFFSET -2.946594 0.000000 -0.000982
												}
											}
										}
									}
								}
								JOINT mixamorig:RightHandRing1
								{
									OFFSET -9.103600 -0.043106 -1.865100
									CHANNELS 6 Xposition Yposition Zposition Xrotation Yrotation Zrotation
									JOINT mixamorig:RightHandRing2
									{
										OFFSET -3.379303 0.000000 0.000000
										CHANNELS 3 Xrotation Yrotation Zrotation
										JOINT mixamorig:RightHandRing3
										{
											OFFSET -2.889702 0.000000 0.000000
											CHANNELS 3 Xrotation Yrotation Zrotation
											JOINT mixamorig:RightHandRing4
											{
												OFFSET -2.638794 0.000000 0.000000
												CHANNELS 3 Xrotation Yrotation Zrotation
												End Site
												{
													OFFSET -2.638794 0.000000 0.004219
												}
											}
										}
									}
								}
								JOINT mixamorig:RightHandPinky1
								{
									OFFSET -8.076698 -0.486725 -3.806297
									CHANNELS 6 Xposition Yposition Zposition Xrotation Yrotation Zrotation
									JOINT mixamorig:RightHandPinky2
									{
										OFFSET -3.600006 0.000000 0.000000
										CHANNELS 3 Xrotation Yrotation Zrotation
										JOINT mixamorig:RightHandPinky3
										{
											OFFSET -2.099998 0.000000 0.000000
											CHANNELS 3 Xrotation Yrotation Zrotation
											JOINT mixamorig:RightHandPinky4
											{
												OFFSET -2.115799 0.000000 0.000000
												CHANNELS 3 Xrotation Yrotation Zrotation
												End Site
												{
													OFFSET -2.115799 0.000000 0.000174
												}
											}
										}
									}
								}
							}
						}
					}
				}
				JOINT mixamorig:LeftShoulder
				{
					OFFSET 4.570400 11.014664 -2.160817
					CHANNELS 6 Xposition Yposition Zposition Xrotation Yrotation Zrotation
					JOINT mixamorig:LeftArm
					{
						OFFSET 10.592365 -0.524597 -2.232113
						CHANNELS 3 Xrotation Yrotation Zrotation
						JOINT mixamorig:LeftForeArm
						{
							OFFSET 27.841499 0.000000 0.000000
							CHANNELS 3 Xrotation Yrotation Zrotation
							JOINT mixamorig:LeftHand
							{
								OFFSET 28.328804 0.000000 0.000000
								CHANNELS 3 Xrotation Yrotation Zrotation
								JOINT mixamorig:LeftHandThumb1
								{
									OFFSET 2.466095 -1.576202 2.681697
									CHANNELS 6 Xposition Yposition Zposition Xrotation Yrotation Zrotation
									JOINT mixamorig:LeftHandThumb2
									{
										OFFSET 3.243317 -1.872528 1.872528
										CHANNELS 3 Xrotation Yrotation Zrotation
										JOINT mixamorig:LeftHandThumb3
										{
											OFFSET 2.647881 -1.528763 1.528755
											CHANNELS 3 Xrotation Yrotation Zrotation
											JOINT mixamorig:LeftHandThumb4
											{
												OFFSET 1.998924 -1.154068 1.154079
												CHANNELS 3 Xrotation Yrotation Zrotation
												End Site
												{
													OFFSET 1.884041 -1.149155 1.337651
												}
											}
										}
									}
								}
								JOINT mixamorig:LeftHandIndex1
								{
									OFFSET 9.109299 -0.518005 2.259899
									CHANNELS 6 Xposition Yposition Zposition Xrotation Yrotation Zrotation
									JOINT mixamorig:LeftHandIndex2
									{
										OFFSET 3.699997 0.000000 0.000000
										CHANNELS 3 Xrotation Yrotation Zrotation
										JOINT mixamorig:LeftHandIndex3
										{
											OFFSET 2.849998 0.000000 0.000000
											CHANNELS 3 Xrotation Yrotation Zrotation
											JOINT mixamorig:LeftHandIndex4
											{
												OFFSET 2.774902 0.000000 0.000000
												CHANNELS 3 Xrotation Yrotation Zrotation
												End Site
												{
													OFFSET 2.774902 0.000000 -0.000072
												}
											}
										}
									}
								}
								JOINT mixamorig:LeftHandMiddle1
								{
									OFFSET 9.533394 0.000000 0.000000
									CHANNELS 6 Xposition Yposition Zposition Xrotation Yrotation Zrotation
									JOINT mixamorig:LeftHandMiddle2
									{
										OFFSET 3.700005 0.000000 0.000000
										CHANNELS 3 Xrotation Yrotation Zrotation
										JOINT mixamorig:LeftHandMiddle3
										{
											OFFSET 2.949997 0.000000 0.000000
											CHANNELS 3 Xrotation Yrotation Zrotation
											JOINT mixamorig:LeftHandMiddle4
											{
												OFFSET 2.952904 0.000000 0.000000
												CHANNELS 3 Xrotation Yrotation Zrotation
												End Site
												{
													OFFSET 2.952896 0.000000 0.000165
												}
											}
										}
									}
								}
								JOINT mixamorig:LeftHandRing1
								{
									OFFSET 9.104500 -0.042999 -1.865100
									CHANNELS 6 Xposition Yposition Zposition Xrotation Yrotation Zrotation
									JOINT mixamorig:LeftHandRing2
									{
										OFFSET 3.149994 0.000000 0.000000
										CHANNELS 3 Xrotation Yrotation Zrotation
										JOINT mixamorig:LeftHandRing3
										{
											OFFSET 2.950005 0.000000 0.000000
											CHANNELS 3 Xrotation Yrotation Zrotation
											JOINT mixamorig:LeftHandRing4
											{
												OFFSET 2.644295 0.000000 0.000000
												CHANNELS 3 Xrotation Yrotation Zrotation
												End Site
												{
													OFFSET 2.644302 0.000000 0.000083
												}
											}
										}
									}
								}
								JOINT mixamorig:LeftHandPinky1
								{
									OFFSET 8.077797 -0.486893 -3.806301
									CHANNELS 6 Xposition Yposition Zposition Xrotation Yrotation Zrotation
									JOINT mixamorig:LeftHandPinky2
									{
										OFFSET 3.599998 0.000000 0.000000
										CHANNELS 3 Xrotation Yrotation Zrotation
										JOINT mixamorig:LeftHandPinky3
										{
											OFFSET 2.099998 0.000000 0.000000
											CHANNELS 3 Xrotation Yrotation Zrotation
											JOINT mixamorig:LeftHandPinky4
											{
												OFFSET 2.125504 0.000000 0.000000
												CHANNELS 3 Xrotation Yrotation Zrotation
												End Site
												{
													OFFSET 2.125504 0.000000 -0.001254
												}
											}
										}
									}
								}
							}
						}
					}
				}
			}
		}
	}
	JOINT mixamorig:RightUpLeg
	{
		OFFSET -8.207800 -6.751701 -1.599544
		CHANNELS 6 Xposition Yposition Zposition Xrotation Yrotation Zrotation
		JOINT mixamorig:RightLeg
		{
			OFFSET 0.000000 -44.370155 0.345934
			CHANNELS 3 Xrotation Yrotation Zrotation
			JOINT mixamorig:RightFoot
			{
				OFFSET 0.000000 -44.423664 -3.043536
				CHANNELS 3 Xrotation Yrotation Zrotation
				JOINT mixamorig:RightToeBase
				{
					OFFSET 0.000000 -8.728685 10.710592
					CHANNELS 3 Xrotation Yrotation Zrotation
					JOINT mixamorig:RightToe_End
					{
						OFFSET 0.000000 -0.000664 9.278099
						CHANNELS 3 Xrotation Yrotation Zrotation
						End Site
						{
							OFFSET 0.000000 -0.000664 9.278101
						}
					}
				}
			}
		}
	}
	JOINT mixamorig:LeftUpLeg
	{
		OFFSET 8.207800 -6.751701 -1.599544
		CHANNELS 6 Xposition Yposition Zposition Xrotation Yrotation Zrotation
		JOINT mixamorig:LeftLeg
		{
			OFFSET 0.000000 -44.370049 0.346940
			CHANNELS 3 Xrotation Yrotation Zrotation
			JOINT mixamorig:LeftFoot
			{
				OFFSET 0.000000 -44.423603 -3.044389
				CHANNELS 3 Xrotation Yrotation Zrotation
				JOINT mixamorig:LeftToeBase
				{
					OFFSET 0.000000 -8.728686 10.710592
					CHANNELS 3 Xrotation Yrotation Zrotation
					JOINT mixamorig:LeftToe_End
					{
						OFFSET 0.000000 -0.000680 9.278100
						CHANNELS 3 Xrotation Yrotation Zrotation
						End Site
						{
							OFFSET 0.000000 -0.000680 9.278100
						}
					}
				}
			}
		}
	}
}
MOTION
Frames: 4
Frame Time: 0.033333
-0.325694 101.712639 1.460868 -4.121920 -8.712547 0.357610 -0.000000 10.181550 0.131522 3.921034 0.380246 -0.168777 7.839848 0.739312 0.000733 7.839852 0.739310 0.000733 0.000001 16.740393 -2.049024 3.008832 -0.606291 2.184748 -0.000001 9.617856 1.684984 -9.095414 1.411360 -3.078234 0.000000 22.037369 7.501076 0.000001 0.000000 0.000000 -4.570000 11.014882 -2.160839 -0.000007 -0.000000 0.000318 11.806299 5.188295 74.110633 38.359094 90.434717 -39.051716 30.665849 5.428200 -21.958544 -2.464804 -1.573981 2.681917 5.298249 5.629946 13.559333 3.502673 -12.177771 1.610967 0.000007 -0.000002 -0.000000 -0.000002 -0.000003 0.000000 -9.108302 -0.517888 2.259797 -6.047900 -7.019811 17.997075 0.038847 -0.396178 8.961956 0.000000 -0.000002 0.000001 -0.000001 -0.000002 0.000003 -9.532499 0.000008 0.000002 -1.870294 -1.739485 22.875263 -0.286909 1.370488 22.743678 -0.000001 0.000001 0.000001 -0.000002 0.000003 0.000001 -9.103594 -0.043101 -1.865104 2.148073 -4.544647 19.698805 -2.579735 4.917333 52.752280 0.000000 -0.000001 0.000001 0.000002 -0.000001 0.000000 -8.076705 -0.486727 -3.806303 3.022044 1.977988 33.370354 -2.084457 6.099851 37.911467 0.000002 -0.000003 -0.000002 0.000001 -0.000004 -0.000002 4.570400 11.014677 -2.160817 -0.000021 -0.000018 0.000194 5.969068 -20.338673 -70.761347 -2.476731 -78.092886 -1.687777 35.983967 -3.080544 25.180401 2.466073 -1.576197 2.681690 -3.905992 -10.571681 -4.374755 3.362323 21.294278 -5.805924 -0.000006 0.000002 -0.000003 0.000007 0.000001 0.000003 9.109302 -0.518017 2.259893 -6.060146 2.089281 -7.935201 0.000939 0.388851 -20.165621 -0.000004 -0.000003 -0.000007 -0.000001 -0.000001 -0.000005 9.533394 0.000007 -0.000007 -0.366697 2.216722 -14.010731 -0.361979 -1.777976 -22.312708 -0.000001 -0.000007 -0.000002 0.000003 -0.000001 0.000000 9.104490 -0.042988 -1.865106 0.589558 4.760158 -29.201460 -0.495326 -2.160458 -26.280393 0.000002 0.000003 0.000000 -0.000001 -0.000003 0.000000 8.077785 -0.486885 -3.806304 -0.243346 1.425203 -42.036539 -0.050883 -1.051553 -8.727110 -0.000002 0.000002 0.000002 -0.000002 -0.000001 0.000002 -8.207801 -6.751705 -1.599544 -6.752729 0.409385 -4.589813 24.501268 0.101252 0.917475 -13.690473 -8.245929 4.004106 -0.012210 -0.109708 0.262094 0.000000 0.000002 0.000000 8.207800 -6.751685 -1.599545 -5.000790 1.414717 4.297480 21.200559 -0.190187 -0.787494 -11.201499 11.720586 -4.279963 -0.016598 -0.026208 0.028670 0.000000 0.000000 0.000000 
-0.331691 101.696709 1.427716 -4.120360 -8.713254 0.369413 -0.000000 10.181557 0.131525 3.921854 0.376351 -0.169865 7.841485 0.731525 0.001979 7.841483 0.731526 0.001980 0.000000 16.740360 -2.049018 3.005860 -0.604527 2.189271 0.000000 9.617859 1.684976 -9.082491 1.433635 -3.099584 0.000000 22.037369 7.501072 0.000000 0.000000 -0.000000 -4.570001 11.014851 -2.160837 0.006179 -0.012673 -0.025029 11.796060 5.208814 74.106521 33.253199 90.486660 -33.944739 30.666228 5.418916 -21.892517 -2.464809 -1.573996 2.681902 5.292270 5.738267 13.578476 3.475736 -12.270953 1.642980 0.000014 -0.000000 -0.000005 -0.000000 0.000002 0.000004 -9.108296 -0.517876 2.259803 -6.037162 -7.047618 18.011800 0.038491 -0.394093 8.910331 -0.000001 -0.000001 -0.000001 -0.000004 -0.000000 -0.000000 -9.532512 0.000006 -0.000007 -1.872186 -1.734954 22.858044 -0.285245 1.367002 22.677430 -0.000000 0.000002 -0.000000 0.000002 0.000000 -0.000002 -9.103605 -0.043083 -1.865100 2.148548 -4.544598 19.707256 -2.580123 4.917612 52.756525 0.000003 -0.000004 -0.000000 0.000004 -0.000005 0.000001 -8.076710 -0.486708 -3.806296 3.027692 1.971279 33.358138 -2.094559 6.111338 38.008842 0.000002 -0.000001 -0.000001 0.000001 -0.000003 -0.000000 4.570399 11.014656 -2.160812 0.000006 -0.000036 0.000278 5.953074 -20.313490 -70.746758 -2.472468 -78.143163 -1.685627 36.014577 -3.025440 25.103045 2.466084 -1.576206 2.681694 -4.015641 -10.614852 -4.347272 3.353575 21.317780 -5.806077 -0.000010 -0.000000 -0.000005 0.000006 -0.000003 0.000001 9.109303 -0.518020 2.259902 -6.062751 2.072477 -7.956049 0.000739 0.388386 -20.138345 -0.000006 -0.000002 -0.000006 -0.000002 -0.000002 -0.000004 9.533402 -0.000000 -0.000000 -0.367372 2.212899 -13.951429 -0.359431 -1.772019 -22.231344 -0.000001 -0.000010 0.000004 0.000000 -0.000002 0.000002 9.104499 -0.042998 -1.865098 0.600345 4.778740 -29.204888 -0.496167 -2.162161 -26.302553 0.000002 0.000001 -0.000001 -0.000001 -0.000001 0.000000 8.077796 -0.486885 -3.806299 -0.249738 1.418146 -42.063157 -0.051030 -1.052495 -8.735952 -0.000002 -0.000002 -0.000000 0.000001 -0.000003 0.000003 -8.207801 -6.751688 -1.599543 -6.830945 0.374993 -4.607825 24.602396 0.102302 0.921193 -13.719199 -8.203210 3.993787 -0.012243 -0.109942 0.262641 0.000000 0.000001 -0.000000 8.207798 -6.751680 -1.599544 -5.065518 1.412647 4.299027 21.286920 -0.189912 -0.790764 -11.223451 11.705686 -4.287893 -0.016611 -0.026241 0.028707 -0.000000 0.000000 0.000000 
-0.336700 101.685272 1.398634 -4.115279 -8.711574 0.379634 0.000000 10.181553 0.131524 3.919943 0.371719 -0.170206 7.837663 0.722359 0.004230 7.837666 0.722359 0.004231 -0.000001 16.740374 -2.049022 3.005469 -0.603791 2.188387 0.000000 9.617861 1.684973 -9.047338 1.443379 -3.115784 0.000000 22.037384 7.501072 0.000000 0.000000 -0.000000 -4.570001 11.014840 -2.160839 0.014005 -0.028877 -0.056722 11.787645 5.245529 74.110285 30.216347 90.528550 -30.906370 30.652424 5.379197 -21.892898 -2.464811 -1.574000 2.681905 5.300842 5.740633 13.583838 3.509110 -12.150098 1.596296 0.000011 -0.000000 -0.000002 -0.000006 0.000003 -0.000000 -9.108301 -0.517886 2.259789 -6.032627 -7.052874 18.050972 0.038946 -0.396680 8.975022 -0.000001 -0.000001 0.000002 -0.000003 0.000002 0.000002 -9.532500 -0.000009 -0.000006 -1.869955 -1.739910 22.837815 -0.283571 1.363542 22.611193 -0.000002 -0.000000 -0.000000 -0.000001 0.000000 0.000001 -9.103601 -0.043109 -1.865108 2.156675 -4.566210 19.709283 -2.577100 4.915350 52.721486 0.000003 0.000003 -0.000001 0.000002 0.000002 -0.000001 -8.076716 -0.486739 -3.806308 3.027654 1.972317 33.353357 -2.087655 6.103467 37.942257 -0.000001 0.000001 -0.000000 -0.000001 0.000002 0.000001 4.570400 11.014647 -2.160817 -0.000717 -0.002033 -0.006136 5.947286 -20.288922 -70.716220 -2.466522 -78.193276 -1.681818 36.047898 -2.984974 25.035913 2.466073 -1.576230 2.681686 -4.117245 -10.689584 -4.332440 3.360306 21.294766 -5.801864 -0.000007 0.000005 -0.000004 -0.000002 0.000003 -0.000006 9.109298 -0.518028 2.259896 -6.064388 2.064779 -7.917099 0.000376 0.387557 -20.088360 -0.000006 -0.000002 -0.000007 -0.000001 -0.000002 -0.000002 9.533387 -0.000022 -0.000002 -0.365101 2.220262 -13.877157 -0.357235 -1.766907 -22.161111 -0.000001 -0.000008 0.000003 0.000000 -0.000001 0.000000 9.104490 -0.043021 -1.865108 0.598266 4.779529 -29.160745 -0.497371 -2.164609 -26.334722 0.000003 0.000000 0.000000 -0.000003 -0.000005 0.000000 8.077768 -0.486910 -3.806302 -0.268344 1.398310 -42.054506 -0.051307 -1.054080 -8.750112 -0.000002 0.000001 0.000001 0.000001 0.000001 0.000001 -8.207801 -6.751709 -1.599543 -6.895714 0.351013 -4.622099 24.676408 0.103230 0.923945 -13.738667 -8.168046 3.984868 -0.012240 -0.110036 0.262888 -0.000000 0.000001 0.000000 8.207798 -6.751691 -1.599543 -5.118394 1.406078 4.300166 21.347558 -0.189478 -0.793026 -11.235087 11.692714 -4.295471 -0.016676 -0.026290 0.028702 -0.000000 -0.000000 0.000000 
-0.342237 101.678192 1.373686 -4.104833 -8.709570 0.386607 0.000000 10.181548 0.131526 3.915217 0.367241 -0.169748 7.828219 0.713548 0.007082 7.828213 0.713548 0.007082 0.000001 16.740339 -2.049019 3.005618 -0.604177 2.184209 -0.000002 9.617831 1.684980 -9.006987 1.442076 -3.126943 -0.000000 22.037384 7.501074 -0.000000 -0.000000 0.000000 -4.570000 11.014854 -2.160841 0.022103 -0.045784 -0.088822 11.785855 5.277402 74.127060 27.629686 90.574408 -28.318675 30.634430 5.316010 -21.926121 -2.464804 -1.573990 2.681912 5.328825 5.721959 13.595888 3.509725 -12.145442 1.592343 0.000013 0.000001 -0.000000 -0.000002 0.000001 0.000000 -9.108305 -0.517872 2.259797 -6.031883 -7.049609 18.080257 0.038585 -0.394574 8.922069 -0.000002 -0.000003 0.000003 -0.000002 -0.000002 0.000002 -9.532507 0.000012 -0.000006 -1.868417 -1.744376 22.856658 -0.281907 1.360058 22.544954 -0.000004 0.000001 0.000001 -0.000004 -0.000001 -0.000001 -9.103595 -0.043115 -1.865106 2.159807 -4.575080 19.703574 -2.572344 4.911762 52.665919 0.000000 0.000002 -0.000000 0.000002 0.000002 0.000001 -8.076706 -0.486728 -3.806302 3.028573 1.972620 33.341883 -2.088905 6.104867 37.954248 0.000002 -0.000002 -0.000001 0.000002 -0.000004 0.000000 4.570399 11.014651 -2.160814 -0.001212 -0.003581 -0.011103 5.945349 -20.256499 -70.683722 -2.461768 -78.248157 -1.679141 36.055616 -2.952887 24.988609 2.466085 -1.576211 2.681695 -4.190421 -10.737401 -4.320754 3.350910 21.320318 -5.802281 -0.000010 0.000003 -0.000003 -0.000000 0.000005 0.000006 9.109292 -0.518003 2.259898 -6.063983 2.068977 -7.923921 0.000097 0.386922 -20.051759 -0.000004 -0.000003 -0.000005 0.000000 -0.000003 -0.000004 9.533400 0.000008 -0.000001 -0.367108 2.212242 -13.857919 -0.355809 -1.763550 -22.115126 -0.000003 -0.000008 0.000000 -0.000001 -0.000000 -0.000001 9.104497 -0.042997 -1.865099 0.592542 4.768823 -29.167510 -0.498463 -2.166828 -26.363588 0.000004 -0.000001 0.000000 -0.000001 -0.000005 0.000002 8.077793 -0.486893 -3.806298 -0.283804 1.381727 -42.064652 -0.051925 -1.058049 -8.783993 -0.000001 -0.000001 0.000000 0.000000 -0.000005 0.000002 -8.207799 -6.751718 -1.599542 -6.949630 0.338378 -4.627701 24.724974 0.103797 0.925737 -13.750469 -8.152395 3.973399 -0.012247 -0.110124 0.263106 -0.000000 -0.000001 0.000000 8.207800 -6.751708 -1.599545 -5.163139 1.399409 4.302829 21.385956 -0.188952 -0.794404 -11.237691 11.688937 -4.301996 -0.016633 -0.026319 0.028831 0.000000 0.000000 0.000000 
